Coordinates
version=1
nRows=32
nColumns=38
inDegrees=no

Units are S.I. units (second, meters, Newtons, ...)
If the header above contains a line with 'inDegrees', this indicates whether rotational values are in degrees (yes) or radians (no).

endheader
time	pelvis_tilt	pelvis_list	pelvis_rotation	pelvis_tx	pelvis_ty	pelvis_tz	hip_flexion_r	hip_adduction_r	hip_rotation_r	knee_angle_r	ankle_angle_r	subtalar_angle_r	mtp_angle_r	hip_flexion_l	hip_adduction_l	hip_rotation_l	knee_angle_l	ankle_angle_l	subtalar_angle_l	mtp_angle_l	lumbar_extension	lumbar_bending	lumbar_rotation	arm_flex_r	arm_add_r	arm_rot_r	elbow_flex_r	pro_sup_r	wrist_flex_r	wrist_dev_r	arm_flex_l	arm_add_l	arm_rot_l	elbow_flex_l	pro_sup_l	wrist_flex_l	wrist_dev_l
3.05	0.138963	-0.0579496	0.00798904	0.671755	0.976076	-0.29227	0.0646551	0.131259	0.0123288	-0.713138	0.451346	-0.0146385	-0.0160191	0.262578	-0.0646589	-0.0362383	-1.42133	-0.0157454	-0.0220178	-0.0760301	-0.436401	0.0493137	0.0919927	-0.238698	-0.371943	-0.118954	1.61165	1.29353	-0.0176126	-0.0778727	-0.19694	-0.251525	0.0791749	1.43315	1.83703	0.0880775	-0.0808981
3.06	0.134138	-0.0448797	0.00150238	0.672102	0.978212	-0.292052	0.0323129	0.11686	0.021546	-0.68622	0.451166	-0.0146385	-0.0160191	0.289261	-0.0472711	-0.041225	-1.39425	0.00126322	-0.0220178	-0.0760301	-0.428479	0.0308235	0.102227	-0.227307	-0.378659	-0.124397	1.62668	1.29712	-0.0176126	-0.0778727	-0.232855	-0.253053	0.0582075	1.43126	1.82687	0.0880775	-0.0808981
3.07	0.127235	-0.0308859	-0.0048508	0.672775	0.980828	-0.291918	0.000489947	0.100852	0.0295545	-0.655001	0.444171	-0.0146385	-0.0160191	0.314216	-0.0296967	-0.0485948	-1.35688	0.018281	-0.0220178	-0.0760301	-0.417706	0.0113956	0.111859	-0.220758	-0.383314	-0.133375	1.64576	1.30068	-0.0176126	-0.0778727	-0.271839	-0.256893	0.0376562	1.43927	1.81285	0.0880775	-0.0808981
3.08	0.118378	-0.0165072	-0.0106624	0.673735	0.983844	-0.291925	-0.0303089	0.0836796	0.0356489	-0.620438	0.429901	-0.0146385	-0.0160191	0.33719	-0.0123583	-0.057663	-1.30932	0.0344062	-0.0220178	-0.0760301	-0.404312	-0.00809418	0.120845	-0.218659	-0.386354	-0.145272	1.66784	1.30387	-0.0176126	-0.0778727	-0.312793	-0.262412	0.0180527	1.45503	1.7965	0.0880775	-0.0808981
3.09	0.107886	-0.00220142	-0.0156832	0.674945	0.987193	-0.29212	-0.0597929	0.0658118	0.0393752	-0.583551	0.408078	-0.0146385	-0.0160191	0.357715	0.00454598	-0.067484	-1.25166	0.0485042	-0.0220178	-0.0760301	-0.388773	-0.0268997	0.129161	-0.22039	-0.388239	-0.159227	1.69186	1.30641	-0.0176126	-0.0778727	-0.354562	-0.268822	-0.000338109	1.47609	1.77927	0.0880775	-0.0808981
3.1	0.0962624	0.0115966	-0.0198471	0.676367	0.99082	-0.292518	-0.0878877	0.0477675	0.040591	-0.545389	0.37871	-0.0146385	-0.0160191	0.375149	0.0209216	-0.0769626	-1.18408	0.0595734	-0.0220178	-0.0760301	-0.37179	-0.0444486	0.136788	-0.225126	-0.38938	-0.174211	1.71674	1.30819	-0.0176126	-0.0778727	-0.396104	-0.275264	-0.0175875	1.50008	1.76234	0.0880775	-0.0808981
3.11	0.0841309	0.0244528	-0.0232469	0.67796	0.99467	-0.293096	-0.114676	0.0301347	0.0394505	-0.507029	0.342168	-0.0146385	-0.0160191	0.388794	0.0366422	-0.0849895	-1.10708	0.0670737	-0.0220178	-0.0760301	-0.354212	-0.060329	0.143688	-0.231893	-0.390103	-0.189122	1.74154	1.3093	-0.0176126	-0.0778727	-0.436601	-0.280887	-0.0340817	1.52503	1.74644	0.0880775	-0.0808981
3.12	0.07216	0.0359351	-0.0260693	0.679679	0.99868	-0.293804	-0.140305	0.0135523	0.0363398	-0.469594	0.299239	-0.0146385	-0.0160191	0.398033	0.0514692	-0.0905688	-1.02159	0.0710874	-0.0220178	-0.0760301	-0.336939	-0.0742544	0.149769	-0.239652	-0.390637	-0.202908	1.76543	1.31006	-0.0176126	-0.0778727	-0.475493	-0.284919	-0.0504105	1.5495	1.73193	0.0880775	-0.0808981
3.13	0.0609756	0.0456322	-0.0285106	0.681479	1.00277	-0.294577	-0.164864	-0.00133352	0.0317726	-0.434301	0.251126	-0.0146385	-0.0160191	0.402505	0.0650389	-0.0929171	-0.929194	0.072273	-0.0220178	-0.0760301	-0.320811	-0.0860209	0.154877	-0.247401	-0.391118	-0.214676	1.78775	1.31088	-0.0176126	-0.0778727	-0.512436	-0.286743	-0.067203	1.57258	1.71886	0.0880775	-0.0808981
3.14	0.0510849	0.0531815	-0.030711	0.683315	1.00682	-0.295349	-0.188278	-0.0139291	0.0262883	-0.402494	0.199369	-0.0146385	-0.0160191	0.402233	0.0769005	-0.0915502	-0.832214	0.0716681	-0.0220178	-0.0760301	-0.306509	-0.0954734	0.158812	-0.254282	-0.391614	-0.223791	1.808	1.31225	-0.0176126	-0.0778727	-0.547204	-0.285956	-0.0849429	1.59385	1.70714	0.0880775	-0.0808981
3.15	0.042835	0.0583045	-0.0327291	0.685139	1.01072	-0.296068	-0.210262	-0.0237608	0.0203875	-0.375645	0.145674	-0.0146385	-0.0160191	0.397682	0.0865798	-0.086376	-0.733712	0.070429	-0.0220178	-0.0760301	-0.294512	-0.102496	0.161397	-0.259678	-0.39214	-0.229937	1.82589	1.31457	-0.0176126	-0.0778727	-0.579573	-0.282428	-0.103805	1.61322	1.69666	0.0880775	-0.0808981
3.16	0.0364025	0.0608433	-0.034559	0.686903	1.01434	-0.296705	-0.230316	-0.0305386	0.0145044	-0.355292	0.0916925	-0.0146385	-0.0160191	0.389717	0.0936507	-0.0777788	-0.637343	0.06958	-0.0220178	-0.0760301	-0.285073	-0.107025	0.16256	-0.263273	-0.392678	-0.233152	1.84128	1.31807	-0.0176126	-0.0778727	-0.609211	-0.276336	-0.123554	1.63075	1.68728	0.0880775	-0.0808981
3.17	0.0318125	0.0607918	-0.0361686	0.688561	1.01754	-0.297252	-0.247776	-0.0342157	0.00899505	-0.342953	0.0388057	-0.0146385	-0.0160191	0.379479	0.0978171	-0.0666486	-0.54705	0.069808	-0.0220178	-0.0760301	-0.278239	-0.109088	0.162406	-0.265088	-0.393182	-0.233814	1.85419	1.32277	-0.0176126	-0.0778727	-0.635628	-0.268164	-0.143536	1.64656	1.67893	0.0880775	-0.0808981
3.18	0.0289796	0.0583291	-0.0375366	0.690071	1.02023	-0.297714	-0.26189	-0.0350313	0.00410698	-0.34001	-0.0120212	-0.0146385	-0.0160191	0.368189	0.0990016	-0.0542966	-0.466643	0.071324	-0.0220178	-0.0760301	-0.273897	-0.108849	0.161217	-0.26544	-0.393579	-0.232554	1.86477	1.32851	-0.0176126	-0.0778727	-0.658196	-0.258656	-0.162788	1.66072	1.67157	0.0880775	-0.0808981
3.19	0.027769	0.0538501	-0.038668	0.691404	1.02233	-0.298106	-0.271938	-0.0335267	-6.98523e-05	-0.347609	-0.0602482	-0.0146385	-0.0160191	0.356925	0.0974282	-0.0422356	-0.399352	0.0738276	-0.0220178	-0.0760301	-0.271858	-0.106675	0.159328	-0.264802	-0.393775	-0.230082	1.87324	1.33498	-0.0176126	-0.0778727	-0.67629	-0.248706	-0.180271	1.67333	1.66527	0.0880775	-0.0808981
3.2	0.0280889	0.0479924	-0.0395782	0.692531	1.02377	-0.298445	-0.277375	-0.0305308	-0.00365538	-0.366589	-0.105611	-0.0146385	-0.0160191	0.346412	0.0936849	-0.0318657	-0.347472	0.0766183	-0.0220178	-0.0760301	-0.271997	-0.103204	0.156844	-0.263539	-0.393675	-0.226858	1.87984	1.34177	-0.0176126	-0.0778727	-0.689545	-0.239174	-0.195248	1.6846	1.66014	0.0880775	-0.0808981
3.21	0.0298098	0.0415088	-0.0403147	0.693432	1.02451	-0.298756	-0.277822	-0.027032	-0.00691859	-0.397347	-0.148009	-0.0146385	-0.0160191	0.337034	0.0886157	-0.0241902	-0.312124	0.078801	-0.0220178	-0.0760301	-0.274128	-0.0991882	0.153886	-0.262095	-0.393151	-0.223329	1.88479	1.34854	-0.0176126	-0.0778727	-0.697694	-0.230913	-0.207111	1.69468	1.65624	0.0880775	-0.0808981
3.22	0.0327596	0.0351873	-0.0409451	0.694101	1.02452	-0.299068	-0.273085	-0.0240646	-0.010214	-0.439767	-0.187276	-0.0146385	-0.0160191	0.328894	0.0832201	-0.0196305	-0.293268	0.0796307	-0.0220178	-0.0760301	-0.277973	-0.0954012	0.150591	-0.260973	-0.392056	-0.219927	1.8883	1.35501	-0.0176126	-0.0778727	-0.700564	-0.224696	-0.215392	1.70363	1.65355	0.0880775	-0.0808981
3.23	0.0367749	0.0298564	-0.0415154	0.694525	1.02368	-0.299406	-0.263234	-0.0226361	-0.0139365	-0.493241	-0.222919	-0.0146385	-0.0160191	0.321859	0.0785947	-0.0179872	-0.28991	0.0789145	-0.0220178	-0.0760301	-0.283281	-0.0926645	0.146841	-0.260466	-0.390262	-0.216795	1.89045	1.36098	-0.0176126	-0.0778727	-0.698264	-0.221036	-0.220023	1.71153	1.65196	0.0880775	-0.0808981
3.24	0.0416428	0.026268	-0.0420595	0.69473	1.02197	-0.299795	-0.248516	-0.023615	-0.0184009	-0.55666	-0.254042	-0.0146385	-0.0160191	0.315763	0.0757867	-0.0185879	-0.300397	0.0772726	-0.0220178	-0.0760301	-0.289735	-0.0917103	0.142465	-0.260801	-0.387655	-0.213996	1.89124	1.36637	-0.0176126	-0.0778727	-0.690991	-0.22024	-0.221097	1.7183	1.6513	0.0880775	-0.0808981
3.25	0.0471455	0.0250815	-0.0425755	0.694736	1.01934	-0.30025	-0.229353	-0.0276808	-0.0237714	-0.628512	-0.279315	-0.0146385	-0.0160191	0.310471	0.0757279	-0.0205147	-0.322739	0.076226	-0.0220178	-0.0760301	-0.297043	-0.0931894	0.137111	-0.261998	-0.384159	-0.211396	1.89045	1.37114	-0.0176126	-0.0778727	-0.679072	-0.22234	-0.218939	1.72385	1.6513	0.0880775	-0.0808981
3.26	0.0530051	0.026749	-0.0430543	0.694548	1.01583	-0.300789	-0.206217	-0.0352133	-0.0299393	-0.706934	-0.297215	-0.0146385	-0.0160191	0.305982	0.0790808	-0.0228725	-0.354825	0.0779403	-0.0220178	-0.0760301	-0.304834	-0.0975051	0.130593	-0.264137	-0.3797	-0.209014	1.88778	1.37536	-0.0176126	-0.0778727	-0.662652	-0.227254	-0.213714	1.72775	1.65168	0.0880775	-0.0808981
3.27	0.0589288	0.0314736	-0.0434783	0.694192	1.01148	-0.301425	-0.179605	-0.0462392	-0.0364945	-0.789813	-0.306329	-0.0146385	-0.0160191	0.302352	0.0861657	-0.0249823	-0.394527	0.0847153	-0.0220178	-0.0760301	-0.312732	-0.104781	0.122919	-0.267348	-0.374196	-0.207026	1.88279	1.37914	-0.0176126	-0.0778727	-0.641654	-0.234813	-0.205381	1.72934	1.65212	0.0880775	-0.0808981
3.28	0.0647669	0.0392325	-0.0437978	0.693702	1.00648	-0.302149	-0.1501	-0.0604503	-0.0428085	-0.87494	-0.30567	-0.0146385	-0.0160191	0.299481	0.0969775	-0.0264616	-0.439702	0.0983568	-0.0220178	-0.0760301	-0.320547	-0.114963	0.113997	-0.271524	-0.367587	-0.205442	1.87489	1.3826	-0.0176126	-0.0778727	-0.616021	-0.24466	-0.19398	1.72796	1.65245	0.0880775	-0.0808981
3.29	0.070471	0.0497261	-0.0439741	0.693096	1.00111	-0.302931	-0.118309	-0.0771666	-0.0481152	-0.960065	-0.295047	-0.0146385	-0.0160191	0.297013	0.111117	-0.027219	-0.48808	0.119605	-0.0220178	-0.0760301	-0.328215	-0.127726	0.103869	-0.27652	-0.359797	-0.204303	1.86343	1.38589	-0.0176126	-0.0778727	-0.585578	-0.256375	-0.179457	1.72286	1.65268	0.0880775	-0.0808981
3.3	0.0760529	0.0623738	-0.0439745	0.692362	0.995687	-0.303715	-0.0848491	-0.0954094	-0.0516694	-1.043	-0.275196	-0.0146385	-0.0160191	0.294259	0.12783	-0.0273537	-0.537236	0.147924	-0.0220178	-0.0760301	-0.335825	-0.14251	0.0926617	-0.282135	-0.350757	-0.203583	1.84775	1.38908	-0.0176126	-0.0778727	-0.550172	-0.269477	-0.161796	1.71346	1.65306	0.0880775	-0.0808981
3.31	0.0816424	0.0764376	-0.0437594	0.691477	0.990434	-0.304444	-0.0503678	-0.114051	-0.052955	-1.12174	-0.247643	-0.0146385	-0.0160191	0.290216	0.146133	-0.0270079	-0.584699	0.181728	-0.0220178	-0.0760301	-0.343658	-0.158663	0.080275	-0.287901	-0.340467	-0.202838	1.82729	1.39208	-0.0176126	-0.0778727	-0.510045	-0.283315	-0.141421	1.69965	1.65407	0.0880775	-0.0808981
3.32	0.0873644	0.0910657	-0.0433009	0.690437	0.985522	-0.305091	-0.0154382	-0.131887	-0.051793	-1.19453	-0.214475	-0.0146385	-0.0160191	0.283782	0.164857	-0.0262492	-0.628125	0.218826	-0.0220178	-0.0760301	-0.351987	-0.175356	0.0666601	-0.293392	-0.329001	-0.201484	1.80178	1.39462	-0.0176126	-0.0778727	-0.465705	-0.297187	-0.118976	1.68178	1.65631	0.0880775	-0.0808981
3.33	0.0932572	0.10528	-0.0425734	0.689265	0.981128	-0.305621	0.0195023	-0.147781	-0.0483966	-1.25988	-0.177999	-0.0146385	-0.0160191	0.273983	0.182771	-0.0250139	-0.665513	0.256932	-0.0220178	-0.0760301	-0.360915	-0.191639	0.0519257	-0.298402	-0.316522	-0.198963	1.77133	1.39628	-0.0176126	-0.0778727	-0.4179	-0.310392	-0.0952347	1.66065	1.66033	0.0880775	-0.0808981
3.34	0.0992483	0.118106	-0.04155	0.688	0.977431	-0.305994	0.0541675	-0.16079	-0.0433315	-1.3166	-0.140412	-0.0146385	-0.0160191	0.260132	0.198723	-0.0231175	-0.695347	0.294012	-0.0220178	-0.0760301	-0.370314	-0.206509	0.0363528	-0.303014	-0.303299	-0.194829	1.73657	1.39647	-0.0176126	-0.0778727	-0.367629	-0.322248	-0.0710797	1.63753	1.66647	0.0880775	-0.0808981
3.35	0.105135	0.128705	-0.0402138	0.686696	0.974568	-0.306203	0.0883995	-0.170254	-0.0373804	-1.36385	-0.103557	-0.0146385	-0.0160191	0.241891	0.211772	-0.0203196	-0.716638	0.328448	-0.0220178	-0.0760301	-0.379833	-0.219021	0.0203571	-0.307606	-0.289696	-0.188834	1.69866	1.39461	-0.0176126	-0.0778727	-0.316129	-0.332117	-0.0474749	1.61408	1.67473	0.0880775	-0.0808981
3.36	0.110616	0.136484	-0.0385722	0.685416	0.972608	-0.306289	0.122126	-0.175828	-0.0313668	-1.40106	-0.0687845	-0.0146385	-0.0160191	0.219257	0.22128	-0.0164062	-0.728868	0.359032	-0.0220178	-0.0760301	-0.388945	-0.228385	0.00444136	-0.312801	-0.276135	-0.180986	1.6592	1.3902	-0.0176126	-0.0778727	-0.264807	-0.339439	-0.0254113	1.59223	1.68476	0.0880775	-0.0808981
